<svg id="svg" version="1.1" xmlns="http://www.w3.org/2000/svg" xmlns:xlink="http://www.w3.org/1999/xlink" width="400" height="441.1764705882353" viewBox="0, 0, 400,441.1764705882353"><g id="svgg"><path id="path0" d="M199.200 16.200 C 199.200 16.619,198.778 16.800,197.800 16.800 C 196.667 16.800,196.400 16.952,196.400 17.600 C 196.400 18.248,196.133 18.400,195.000 18.400 C 193.867 18.400,193.600 18.552,193.600 19.200 C 193.600 19.849,193.333 20.000,192.187 20.000 C 191.301 20.000,190.689 20.223,190.545 20.600 C 190.418 20.930,190.047 21.200,189.720 21.200 C 189.393 21.200,189.031 21.560,188.916 22.000 C 188.760 22.597,188.370 22.800,187.381 22.800 C 186.311 22.800,186.031 22.973,185.928 23.700 C 185.821 24.456,185.591 24.579,184.500 24.470 C 183.436 24.363,183.200 24.480,183.200 25.115 C 183.200 25.760,182.971 25.864,181.829 25.739 C 180.742 25.619,180.406 25.750,180.210 26.370 C 180.045 26.890,179.532 27.194,178.681 27.276 C 177.681 27.373,177.405 27.582,177.424 28.230 C 177.443 28.888,177.255 29.023,176.518 28.882 C 175.790 28.743,175.642 28.845,175.837 29.352 C 176.062 29.939,175.642 30.196,174.700 30.047 C 174.535 30.021,174.400 30.216,174.400 30.480 C 174.400 30.853,174.293 30.853,173.920 30.480 C 173.215 29.775,172.800 29.893,172.800 30.800 C 172.800 31.448,172.533 31.600,171.400 31.600 C 170.267 31.600,170.000 31.752,170.000 32.400 C 170.000 33.070,169.733 33.200,168.353 33.200 C 166.926 33.200,166.733 33.302,166.908 33.968 C 167.058 34.545,166.929 34.702,166.386 34.597 C 165.268 34.382,164.000 34.833,164.000 35.447 C 164.000 35.751,163.640 36.000,163.200 36.000 C 162.667 36.000,162.400 36.267,162.400 36.800 C 162.400 37.448,162.133 37.600,161.000 37.600 C 159.885 37.600,159.600 37.757,159.600 38.370 C 159.600 39.016,159.375 39.112,158.200 38.966 C 157.007 38.818,156.800 38.911,156.800 39.596 C 156.800 40.252,156.536 40.400,155.363 40.400 C 154.262 40.400,153.876 40.587,153.716 41.200 C 153.559 41.801,153.170 42.000,152.153 42.000 C 151.044 42.000,150.800 42.152,150.800 42.843 C 150.800 43.449,150.621 43.617,150.163 43.441 C 149.738 43.278,149.456 43.464,149.316 43.998 C 149.159 44.601,148.771 44.800,147.753 44.800 C 146.667 44.800,146.400 44.958,146.400 45.600 C 146.400 46.245,146.133 46.400,145.027 46.400 C 143.996 46.400,143.589 46.603,143.395 47.217 C 143.218 47.774,142.909 47.962,142.424 47.808 C 141.476 47.507,140.400 47.951,140.400 48.643 C 140.400 48.999,139.954 49.200,139.163 49.200 C 138.262 49.200,137.868 49.417,137.716 50.000 C 137.601 50.440,137.189 50.800,136.800 50.800 C 136.411 50.800,135.999 51.159,135.885 51.598 C 135.713 52.252,135.454 52.351,134.438 52.148 C 133.374 51.935,133.200 52.016,133.200 52.726 C 133.200 53.391,132.909 53.576,131.700 53.676 C 130.545 53.771,130.173 53.988,130.083 54.618 C 129.985 55.299,129.735 55.408,128.583 55.274 C 127.526 55.151,127.200 55.260,127.200 55.738 C 127.200 56.136,126.691 56.459,125.800 56.626 C 124.998 56.777,124.400 57.126,124.400 57.445 C 124.400 57.750,124.040 58.000,123.600 58.000 C 123.067 58.000,122.800 58.267,122.800 58.800 C 122.800 59.448,122.533 59.600,121.400 59.600 C 120.274 59.600,120.000 59.754,120.000 60.387 C 120.000 60.924,119.808 61.101,119.399 60.944 C 118.391 60.558,116.699 61.161,116.951 61.817 C 117.124 62.267,116.814 62.400,115.587 62.400 C 114.267 62.400,114.000 62.534,114.000 63.200 C 114.000 63.848,113.733 64.000,112.600 64.000 C 111.622 64.000,111.200 64.181,111.200 64.600 C 111.200 64.930,110.913 65.200,110.563 65.200 C 110.212 65.200,109.831 65.560,109.716 66.000 C 109.559 66.601,109.170 66.800,108.153 66.800 C 107.067 66.800,106.800 66.958,106.800 67.600 C 106.800 68.263,106.533 68.400,105.247 68.400 C 104.030 68.400,103.648 68.573,103.484 69.200 C 103.332 69.783,102.938 70.000,102.037 70.000 C 101.204 70.000,100.800 70.196,100.800 70.600 C 100.800 71.004,100.396 71.200,99.563 71.200 C 98.662 71.200,98.268 71.417,98.116 72.000 C 98.000 72.443,97.570 72.800,97.153 72.800 C 96.667 72.800,96.400 73.083,96.400 73.600 C 96.400 74.249,96.133 74.400,94.987 74.400 C 94.101 74.400,93.489 74.623,93.345 75.000 C 93.203 75.370,92.595 75.600,91.757 75.600 C 90.667 75.600,90.400 75.757,90.400 76.400 C 90.400 77.048,90.133 77.200,89.000 77.200 C 87.867 77.200,87.600 77.352,87.600 78.000 C 87.600 78.648,87.333 78.800,86.200 78.800 C 85.222 78.800,84.800 78.981,84.800 79.400 C 84.800 79.733,84.444 80.000,84.000 80.000 C 83.467 80.000,83.200 80.267,83.200 80.800 C 83.200 81.470,82.933 81.600,81.553 81.600 C 80.104 81.600,79.932 81.696,80.116 82.400 C 80.299 83.099,80.128 83.200,78.763 83.200 C 77.640 83.200,77.200 83.369,77.200 83.800 C 77.200 84.219,76.778 84.400,75.800 84.400 C 74.667 84.400,74.400 84.552,74.400 85.200 C 74.400 85.845,74.133 86.000,73.027 86.000 C 72.005 86.000,71.589 86.205,71.400 86.800 C 71.260 87.240,70.888 87.600,70.573 87.600 C 70.258 87.600,70.000 87.859,70.000 88.176 C 70.000 88.553,69.481 88.795,68.500 88.876 C 67.329 88.973,67.026 89.154,67.118 89.700 C 67.213 90.271,66.936 90.400,65.618 90.400 C 64.267 90.400,64.000 90.532,64.000 91.200 C 64.000 91.848,63.733 92.000,62.600 92.000 C 61.622 92.000,61.200 92.181,61.200 92.600 C 61.200 93.000,60.800 93.200,60.003 93.200 C 59.240 93.200,58.626 93.490,58.307 94.000 C 58.032 94.440,57.581 94.800,57.304 94.800 C 57.027 94.800,56.800 95.160,56.800 95.600 C 56.800 96.263,56.533 96.400,55.247 96.400 C 54.045 96.400,53.647 96.576,53.490 97.176 C 53.332 97.783,53.015 97.918,52.044 97.795 C 51.023 97.666,50.800 97.778,50.800 98.419 C 50.800 99.045,50.522 99.200,49.400 99.200 C 48.206 99.200,48.000 99.335,48.000 100.120 C 48.000 100.931,47.839 101.021,46.635 100.880 C 45.557 100.754,45.175 100.899,44.815 101.572 C 44.565 102.040,44.202 102.325,44.009 102.205 C 43.816 102.086,43.543 102.351,43.402 102.794 C 43.211 103.396,42.798 103.600,41.773 103.600 C 40.667 103.600,40.400 103.755,40.400 104.400 C 40.400 105.048,40.133 105.200,39.000 105.200 C 37.885 105.200,37.600 105.357,37.600 105.970 C 37.600 106.613,37.374 106.712,36.227 106.569 C 35.120 106.432,34.805 106.554,34.600 107.200 C 34.420 107.768,33.995 108.000,33.136 108.000 C 32.262 108.000,31.867 108.222,31.716 108.800 C 31.597 109.255,31.170 109.600,30.726 109.600 C 30.137 109.600,30.006 109.789,30.192 110.375 C 30.412 111.069,30.269 111.134,28.819 111.002 C 27.434 110.875,27.200 110.965,27.200 111.627 C 27.200 112.244,26.917 112.400,25.800 112.400 C 24.667 112.400,24.400 112.552,24.400 113.200 C 24.400 113.870,24.133 114.000,22.753 114.000 C 21.280 114.000,21.130 114.088,21.325 114.836 C 21.512 115.550,21.406 115.638,20.604 115.437 C 19.423 115.140,18.400 115.515,18.400 116.243 C 18.400 116.549,18.041 116.800,17.603 116.800 C 16.813 116.800,16.271 318.577,17.053 321.500 C 17.242 322.209,17.581 322.400,18.647 322.400 C 19.761 322.400,20.000 322.551,20.000 323.252 C 20.000 324.029,20.164 324.086,21.854 323.895 C 22.874 323.780,23.477 323.829,23.196 324.003 C 22.305 324.553,23.085 325.600,24.387 325.600 C 25.199 325.600,25.600 325.799,25.600 326.200 C 25.600 326.633,26.044 326.800,27.200 326.800 C 28.533 326.800,28.800 326.933,28.800 327.600 C 28.800 328.111,29.067 328.400,29.538 328.400 C 29.944 328.400,30.602 328.760,31.000 329.200 C 31.398 329.640,32.056 330.000,32.462 330.000 C 32.868 330.000,33.200 330.270,33.200 330.600 C 33.200 331.019,33.622 331.200,34.600 331.200 C 35.733 331.200,36.000 331.352,36.000 332.000 C 36.000 332.642,36.267 332.800,37.353 332.800 C 38.370 332.800,38.759 332.999,38.916 333.600 C 39.076 334.213,39.462 334.400,40.563 334.400 C 41.574 334.400,42.000 334.578,42.000 335.000 C 42.000 335.419,42.422 335.600,43.400 335.600 C 44.533 335.600,44.800 335.752,44.800 336.400 C 44.800 336.917,45.067 337.200,45.553 337.200 C 45.970 337.200,46.400 337.557,46.516 338.000 C 46.668 338.583,47.062 338.800,47.963 338.800 C 48.796 338.800,49.200 338.996,49.200 339.400 C 49.200 339.833,49.644 340.000,50.800 340.000 C 52.133 340.000,52.400 340.133,52.400 340.800 C 52.400 341.448,52.667 341.600,53.800 341.600 C 54.933 341.600,55.200 341.752,55.200 342.400 C 55.200 343.048,55.467 343.200,56.600 343.200 C 57.578 343.200,58.000 343.381,58.000 343.800 C 58.000 344.130,58.339 344.400,58.753 344.400 C 59.170 344.400,59.600 344.757,59.716 345.200 C 59.866 345.774,60.262 346.000,61.116 346.000 C 61.970 346.000,62.366 346.226,62.516 346.800 C 62.676 347.413,63.062 347.600,64.163 347.600 C 65.174 347.600,65.600 347.778,65.600 348.200 C 65.600 348.619,66.022 348.800,67.000 348.800 C 68.119 348.800,68.400 348.956,68.400 349.576 C 68.400 350.184,68.725 350.379,69.900 350.476 C 70.896 350.558,71.363 350.780,71.289 351.134 C 71.227 351.428,71.530 351.761,71.961 351.874 C 72.392 351.987,72.841 352.331,72.960 352.639 C 73.078 352.948,73.700 353.200,74.341 353.200 C 75.170 353.200,75.567 353.431,75.716 354.000 C 75.876 354.613,76.262 354.800,77.363 354.800 C 78.533 354.800,78.800 354.948,78.800 355.600 C 78.800 356.248,79.067 356.400,80.200 356.400 C 81.178 356.400,81.600 356.581,81.600 357.000 C 81.600 357.431,82.040 357.600,83.163 357.600 C 84.528 357.600,84.699 357.701,84.516 358.400 C 84.370 358.956,84.504 359.200,84.953 359.200 C 85.309 359.200,85.960 359.560,86.400 360.000 C 86.840 360.440,87.566 360.800,88.013 360.800 C 88.459 360.800,88.929 361.070,89.055 361.400 C 89.197 361.770,89.805 362.000,90.643 362.000 C 91.733 362.000,92.000 362.157,92.000 362.800 C 92.000 363.448,92.267 363.600,93.400 363.600 C 94.533 363.600,94.800 363.752,94.800 364.400 C 94.800 365.067,95.067 365.200,96.400 365.200 C 97.556 365.200,98.000 365.367,98.000 365.800 C 98.000 366.130,98.270 366.400,98.600 366.400 C 98.930 366.400,99.560 366.760,100.000 367.200 C 100.440 367.640,101.160 368.000,101.600 368.000 C 102.133 368.000,102.400 368.267,102.400 368.800 C 102.400 369.442,102.667 369.600,103.753 369.600 C 104.787 369.600,105.158 369.796,105.324 370.430 C 105.455 370.932,105.829 371.230,106.270 371.184 C 107.590 371.046,108.000 371.192,108.000 371.800 C 108.000 372.233,108.444 372.400,109.600 372.400 C 110.933 372.400,111.200 372.533,111.200 373.200 C 111.200 373.848,111.467 374.000,112.600 374.000 C 113.757 374.000,114.000 374.146,114.000 374.843 C 114.000 375.449,114.179 375.617,114.637 375.441 C 115.062 375.278,115.344 375.464,115.484 375.998 C 115.641 376.601,116.029 376.800,117.047 376.800 C 118.133 376.800,118.400 376.958,118.400 377.600 C 118.400 378.263,118.667 378.400,119.956 378.400 C 121.192 378.400,121.500 378.544,121.456 379.100 C 121.413 379.633,121.759 379.830,122.900 379.924 C 123.881 380.005,124.400 380.247,124.400 380.624 C 124.400 381.016,124.848 381.200,125.800 381.200 C 126.933 381.200,127.200 381.352,127.200 382.000 C 127.200 382.533,127.467 382.800,128.000 382.800 C 128.440 382.800,128.800 383.062,128.800 383.382 C 128.800 383.730,129.362 384.069,130.200 384.226 C 131.002 384.377,131.600 384.726,131.600 385.045 C 131.600 385.409,132.065 385.600,132.953 385.600 C 133.970 385.600,134.359 385.799,134.516 386.400 C 134.676 387.013,135.062 387.200,136.163 387.200 C 137.333 387.200,137.600 387.348,137.600 388.000 C 137.600 388.648,137.867 388.800,139.000 388.800 C 139.978 388.800,140.400 388.981,140.400 389.400 C 140.400 389.730,140.739 390.000,141.153 390.000 C 141.570 390.000,142.000 390.357,142.116 390.800 C 142.268 391.383,142.662 391.600,143.563 391.600 C 144.354 391.600,144.800 391.801,144.800 392.157 C 144.800 392.802,145.652 393.200,147.033 393.200 C 147.626 393.200,148.000 393.432,148.000 393.800 C 148.000 394.219,148.422 394.400,149.400 394.400 C 150.533 394.400,150.800 394.552,150.800 395.200 C 150.800 395.848,151.067 396.000,152.200 396.000 C 153.214 396.000,153.600 396.176,153.600 396.637 C 153.600 396.988,153.948 397.366,154.372 397.477 C 154.797 397.588,155.241 397.931,155.360 398.239 C 155.478 398.548,156.100 398.800,156.741 398.800 C 157.570 398.800,157.967 399.031,158.116 399.600 C 158.276 400.213,158.662 400.400,159.763 400.400 C 160.933 400.400,161.200 400.548,161.200 401.200 C 161.200 401.848,161.467 402.000,162.600 402.000 C 163.552 402.000,164.000 402.184,164.000 402.576 C 164.000 402.953,164.519 403.195,165.500 403.276 C 166.641 403.370,166.987 403.567,166.944 404.100 C 166.909 404.543,167.171 404.800,167.657 404.800 C 168.079 404.800,168.524 405.059,168.646 405.376 C 168.767 405.692,169.377 406.063,170.000 406.200 C 170.623 406.337,171.233 406.708,171.354 407.024 C 171.488 407.375,172.128 407.600,172.987 407.600 C 174.133 407.600,174.400 407.751,174.400 408.400 C 174.400 409.048,174.667 409.200,175.800 409.200 C 176.933 409.200,177.200 409.352,177.200 410.000 C 177.200 410.666,177.467 410.800,178.787 410.800 C 180.034 410.800,180.325 410.929,180.145 411.400 C 179.963 411.873,180.261 412.000,181.557 412.000 C 182.933 412.000,183.200 412.130,183.200 412.800 C 183.200 413.240,183.464 413.600,183.786 413.600 C 184.108 413.600,184.565 413.960,184.800 414.400 C 185.080 414.924,185.638 415.200,186.414 415.200 C 187.227 415.200,187.600 415.398,187.600 415.830 C 187.600 416.301,187.928 416.427,188.900 416.330 C 189.991 416.221,190.221 416.344,190.328 417.100 C 190.431 417.830,190.710 418.000,191.801 418.000 C 192.795 418.000,193.212 418.209,193.400 418.800 C 193.589 419.395,194.005 419.600,195.027 419.600 C 195.981 419.600,196.400 419.783,196.400 420.200 C 196.400 421.108,202.255 421.055,203.269 420.138 C 203.671 419.774,204.000 419.669,204.000 419.905 C 204.000 420.140,203.775 420.424,203.500 420.535 C 203.225 420.646,203.495 420.751,204.100 420.768 C 204.825 420.789,205.200 420.596,205.200 420.200 C 205.200 419.781,205.622 419.600,206.600 419.600 C 207.733 419.600,208.000 419.448,208.000 418.800 C 208.000 418.172,208.267 418.000,209.237 418.000 C 210.138 418.000,210.532 417.783,210.684 417.200 C 210.800 416.757,211.230 416.400,211.647 416.400 C 212.061 416.400,212.400 416.130,212.400 415.800 C 212.400 415.378,212.826 415.200,213.837 415.200 C 214.938 415.200,215.324 415.013,215.484 414.400 C 215.641 413.799,216.030 413.600,217.047 413.600 C 218.133 413.600,218.400 413.442,218.400 412.800 C 218.400 412.152,218.667 412.000,219.800 412.000 C 220.778 412.000,221.200 411.819,221.200 411.400 C 221.200 411.002,221.598 410.800,222.386 410.800 C 223.162 410.800,223.720 410.524,224.000 410.000 C 224.235 409.560,224.692 409.200,225.014 409.200 C 225.336 409.200,225.600 408.840,225.600 408.400 C 225.600 407.733,225.867 407.600,227.200 407.600 C 228.356 407.600,228.800 407.433,228.800 407.000 C 228.800 406.581,229.222 406.400,230.200 406.400 C 231.333 406.400,231.600 406.248,231.600 405.600 C 231.600 404.952,231.867 404.800,233.000 404.800 C 234.133 404.800,234.400 404.648,234.400 404.000 C 234.400 403.351,234.667 403.200,235.813 403.200 C 236.699 403.200,237.311 402.977,237.455 402.600 C 237.582 402.270,237.936 402.000,238.243 402.000 C 238.549 402.000,238.800 401.640,238.800 401.200 C 238.800 400.533,239.067 400.400,240.400 400.400 C 241.733 400.400,242.000 400.267,242.000 399.600 C 242.000 398.952,242.267 398.800,243.400 398.800 C 244.378 398.800,244.800 398.619,244.800 398.200 C 244.800 397.781,245.222 397.600,246.200 397.600 C 247.333 397.600,247.600 397.448,247.600 396.800 C 247.600 396.148,247.867 396.000,249.037 396.000 C 250.138 396.000,250.524 395.813,250.684 395.200 C 250.800 394.757,251.230 394.400,251.647 394.400 C 252.061 394.400,252.400 394.130,252.400 393.800 C 252.400 393.396,252.804 393.200,253.637 393.200 C 254.538 393.200,254.932 392.983,255.084 392.400 C 255.240 391.803,255.630 391.600,256.619 391.600 C 257.689 391.600,257.969 391.427,258.072 390.700 C 258.180 389.944,258.409 389.821,259.501 389.930 C 260.403 390.021,260.876 389.867,261.044 389.430 C 261.177 389.084,261.612 388.800,262.010 388.800 C 263.109 388.800,264.000 388.370,264.000 387.840 C 264.000 387.579,264.585 387.193,265.300 386.983 C 266.097 386.748,266.583 386.355,266.555 385.966 C 266.523 385.508,266.773 385.382,267.455 385.513 C 268.133 385.642,268.400 385.511,268.400 385.047 C 268.400 384.574,268.777 384.400,269.800 384.400 C 270.933 384.400,271.200 384.248,271.200 383.600 C 271.200 382.948,271.467 382.800,272.637 382.800 C 273.738 382.800,274.124 382.613,274.284 382.000 C 274.441 381.399,274.830 381.200,275.847 381.200 C 276.735 381.200,277.200 381.009,277.200 380.645 C 277.200 380.326,277.798 379.977,278.600 379.826 C 279.438 379.669,280.000 379.330,280.000 378.982 C 280.000 378.662,280.360 378.400,280.800 378.400 C 281.333 378.400,281.600 378.133,281.600 377.600 C 281.600 376.952,281.867 376.800,283.000 376.800 C 283.978 376.800,284.400 376.619,284.400 376.200 C 284.400 375.616,285.045 375.429,286.530 375.584 C 286.971 375.630,287.345 375.332,287.476 374.830 C 287.642 374.196,288.013 374.000,289.047 374.000 C 290.133 374.000,290.400 373.842,290.400 373.200 C 290.400 372.552,290.667 372.400,291.800 372.400 C 292.778 372.400,293.200 372.219,293.200 371.800 C 293.200 371.467,293.556 371.200,294.000 371.200 C 294.533 371.200,294.800 370.933,294.800 370.400 C 294.800 369.752,295.067 369.600,296.200 369.600 C 297.333 369.600,297.600 369.448,297.600 368.800 C 297.600 368.133,297.867 368.000,299.200 368.000 C 300.533 368.000,300.800 367.867,300.800 367.200 C 300.800 366.552,301.067 366.400,302.200 366.400 C 303.178 366.400,303.600 366.219,303.600 365.800 C 303.600 365.402,303.998 365.200,304.786 365.200 C 305.562 365.200,306.120 364.924,306.400 364.400 C 306.635 363.960,307.092 363.600,307.414 363.600 C 307.736 363.600,308.000 363.240,308.000 362.800 C 308.000 362.133,308.267 362.000,309.600 362.000 C 310.756 362.000,311.200 361.833,311.200 361.400 C 311.200 360.981,311.622 360.800,312.600 360.800 C 313.733 360.800,314.000 360.648,314.000 360.000 C 314.000 359.352,314.267 359.200,315.400 359.200 C 316.533 359.200,316.800 359.048,316.800 358.400 C 316.800 357.757,317.067 357.600,318.157 357.600 C 318.995 357.600,319.603 357.370,319.745 357.000 C 319.871 356.670,320.251 356.400,320.587 356.400 C 320.933 356.400,321.200 356.052,321.200 355.600 C 321.200 354.933,321.467 354.800,322.800 354.800 C 324.133 354.800,324.400 354.667,324.400 354.000 C 324.400 353.347,324.667 353.200,325.847 353.200 C 327.031 353.200,327.260 353.072,327.109 352.495 C 326.952 351.896,327.154 351.813,328.462 351.937 C 329.805 352.065,330.000 351.977,330.000 351.242 C 330.000 350.542,330.243 350.400,331.437 350.400 C 332.467 350.400,332.929 350.201,333.065 349.700 C 333.265 348.967,335.781 347.600,336.931 347.600 C 337.333 347.600,337.600 347.281,337.600 346.800 C 337.600 346.152,337.867 346.000,339.000 346.000 C 340.133 346.000,340.400 345.848,340.400 345.200 C 340.400 344.552,340.667 344.400,341.800 344.400 C 342.778 344.400,343.200 344.219,343.200 343.800 C 343.200 343.378,343.626 343.200,344.637 343.200 C 345.738 343.200,346.124 343.013,346.284 342.400 C 346.434 341.826,346.830 341.600,347.684 341.600 C 348.538 341.600,348.934 341.374,349.084 340.800 C 349.200 340.357,349.630 340.000,350.047 340.000 C 350.461 340.000,350.800 339.730,350.800 339.400 C 350.800 338.981,351.222 338.800,352.200 338.800 C 353.333 338.800,353.600 338.648,353.600 338.000 C 353.600 337.348,353.867 337.200,355.037 337.200 C 356.138 337.200,356.524 337.013,356.684 336.400 C 356.841 335.799,357.230 335.600,358.247 335.600 C 359.135 335.600,359.600 335.409,359.600 335.045 C 359.600 334.726,360.198 334.377,361.000 334.226 C 361.838 334.069,362.400 333.730,362.400 333.382 C 362.400 333.062,362.760 332.800,363.200 332.800 C 363.733 332.800,364.000 332.533,364.000 332.000 C 364.000 331.352,364.267 331.200,365.400 331.200 C 366.378 331.200,366.800 331.019,366.800 330.600 C 366.800 330.178,367.226 330.000,368.237 330.000 C 369.338 330.000,369.724 329.813,369.884 329.200 C 370.041 328.599,370.430 328.400,371.447 328.400 C 372.533 328.400,372.800 328.242,372.800 327.600 C 372.800 326.952,373.067 326.800,374.200 326.800 C 375.178 326.800,375.600 326.619,375.600 326.200 C 375.600 325.867,375.956 325.600,376.400 325.600 C 376.933 325.600,377.200 325.333,377.200 324.800 C 377.200 324.152,377.467 324.000,378.600 324.000 C 379.733 324.000,380.000 323.848,380.000 323.200 C 380.000 322.533,380.267 322.400,381.600 322.400 L 383.200 322.400 383.200 219.600 C 383.200 117.067,383.198 116.800,382.400 116.800 C 381.852 116.800,381.600 116.533,381.600 115.953 C 381.600 115.291,381.418 115.154,380.761 115.326 C 379.679 115.609,378.800 115.264,378.800 114.557 C 378.800 114.251,378.483 114.000,378.096 114.000 C 377.709 114.000,377.168 113.640,376.893 113.200 C 376.618 112.760,375.988 112.400,375.493 112.400 C 374.998 112.400,374.357 112.023,374.070 111.563 C 373.675 110.931,373.301 110.788,372.540 110.979 C 371.745 111.179,371.489 111.061,371.320 110.416 C 371.158 109.798,370.779 109.600,369.753 109.600 C 368.667 109.600,368.400 109.442,368.400 108.800 C 368.400 108.158,368.133 108.000,367.047 108.000 C 366.029 108.000,365.641 107.801,365.484 107.198 C 365.350 106.687,365.057 106.480,364.673 106.627 C 364.291 106.774,363.976 106.556,363.809 106.029 C 363.624 105.444,363.208 105.200,362.400 105.200 C 361.605 105.200,361.176 104.955,361.000 104.400 C 360.811 103.805,360.395 103.600,359.373 103.600 C 358.264 103.600,358.000 103.445,358.000 102.796 C 358.000 102.111,357.793 102.018,356.600 102.166 C 355.425 102.312,355.200 102.216,355.200 101.570 C 355.200 100.962,354.916 100.800,353.847 100.800 C 352.830 100.800,352.441 100.601,352.284 100.000 C 352.159 99.521,351.738 99.200,351.237 99.200 C 350.760 99.200,350.400 98.942,350.400 98.600 C 350.400 98.035,349.959 97.887,348.300 97.893 C 347.882 97.895,347.600 97.595,347.600 97.148 C 347.600 96.560,347.301 96.400,346.200 96.400 C 345.043 96.400,344.800 96.254,344.800 95.558 C 344.800 94.824,344.605 94.735,343.279 94.861 C 341.969 94.986,341.760 94.895,341.779 94.203 C 341.796 93.559,341.503 93.375,340.300 93.276 C 339.319 93.195,338.800 92.953,338.800 92.576 C 338.800 92.259,338.440 92.000,338.000 92.000 C 337.560 92.000,337.200 91.749,337.200 91.443 C 337.200 90.831,336.359 90.400,335.167 90.400 C 334.667 90.400,334.400 90.122,334.400 89.600 C 334.400 88.952,334.133 88.800,333.000 88.800 C 331.992 88.800,331.600 88.623,331.600 88.170 C 331.600 87.699,331.272 87.573,330.300 87.670 C 329.194 87.781,328.980 87.660,328.867 86.861 C 328.749 86.027,328.559 85.939,327.167 86.072 C 325.759 86.206,325.600 86.128,325.600 85.311 C 325.600 84.684,325.364 84.400,324.843 84.400 C 324.426 84.400,323.982 84.130,323.855 83.800 C 323.721 83.449,323.121 83.200,322.413 83.200 C 321.446 83.200,321.200 83.029,321.200 82.358 C 321.200 81.624,321.005 81.535,319.674 81.662 C 318.274 81.795,318.162 81.732,318.321 80.904 C 318.474 80.100,318.333 80.000,317.047 80.000 C 316.027 80.000,315.600 79.823,315.600 79.400 C 315.600 78.967,315.156 78.800,314.000 78.800 C 312.667 78.800,312.400 78.667,312.400 78.000 C 312.400 77.556,312.133 77.200,311.800 77.200 C 311.470 77.200,310.840 76.840,310.400 76.400 C 309.960 75.960,309.240 75.600,308.800 75.600 C 308.356 75.600,308.000 75.333,308.000 75.000 C 308.000 74.581,307.578 74.400,306.600 74.400 C 305.467 74.400,305.200 74.248,305.200 73.600 C 305.200 72.958,304.933 72.800,303.847 72.800 C 302.830 72.800,302.441 72.601,302.284 72.000 C 302.124 71.387,301.738 71.200,300.637 71.200 C 299.597 71.200,299.200 71.026,299.200 70.571 C 299.200 70.185,298.929 69.995,298.500 70.080 C 298.100 70.159,297.625 69.871,297.391 69.409 C 297.165 68.963,296.492 68.543,295.891 68.473 C 295.123 68.384,294.800 68.118,294.800 67.573 C 294.800 66.956,294.517 66.800,293.400 66.800 C 292.427 66.800,292.000 66.618,292.000 66.205 C 292.000 65.820,291.435 65.519,290.400 65.354 C 289.435 65.199,288.800 64.880,288.800 64.549 C 288.800 64.188,288.320 64.000,287.400 64.000 C 286.267 64.000,286.000 63.848,286.000 63.200 C 286.000 62.735,285.733 62.400,285.363 62.400 C 285.013 62.400,284.269 62.040,283.709 61.600 C 283.150 61.160,282.446 60.800,282.146 60.800 C 281.846 60.800,281.600 60.530,281.600 60.200 C 281.600 59.785,281.183 59.600,280.247 59.600 C 279.230 59.600,278.841 59.401,278.684 58.800 C 278.525 58.194,278.138 58.000,277.084 58.000 C 276.030 58.000,275.643 57.806,275.484 57.200 C 275.357 56.713,274.938 56.400,274.414 56.400 C 273.940 56.400,273.663 56.578,273.797 56.795 C 273.937 57.022,273.777 57.089,273.421 56.953 C 273.079 56.822,272.800 56.374,272.800 55.957 C 272.800 55.498,272.520 55.200,272.089 55.200 C 271.698 55.200,271.070 54.840,270.693 54.400 C 270.316 53.960,269.646 53.600,269.204 53.600 C 268.761 53.600,268.400 53.334,268.400 53.008 C 268.400 52.380,266.707 51.763,266.068 52.158 C 265.861 52.286,265.597 52.033,265.483 51.596 C 265.324 50.988,264.936 50.800,263.837 50.800 C 262.667 50.800,262.400 50.652,262.400 50.000 C 262.400 49.358,262.133 49.200,261.047 49.200 C 260.002 49.200,259.642 49.006,259.471 48.348 C 259.313 47.745,259.049 47.572,258.568 47.757 C 258.127 47.926,257.688 47.733,257.321 47.209 C 257.010 46.764,256.426 46.400,256.024 46.400 C 255.622 46.400,255.199 46.040,255.084 45.600 C 254.933 45.022,254.538 44.800,253.664 44.800 C 252.793 44.800,252.381 44.569,252.192 43.976 C 252.023 43.443,251.625 43.176,251.065 43.220 C 249.566 43.339,249.200 43.217,249.200 42.600 C 249.200 42.181,248.778 42.000,247.800 42.000 C 246.667 42.000,246.400 41.848,246.400 41.200 C 246.400 40.661,246.133 40.400,245.583 40.400 C 245.134 40.400,244.394 40.053,243.939 39.629 C 243.484 39.206,242.886 38.946,242.609 39.052 C 242.330 39.159,242.004 38.858,241.878 38.378 C 241.686 37.641,241.419 37.533,240.100 37.659 C 238.672 37.795,238.562 37.735,238.721 36.904 C 238.874 36.100,238.733 36.000,237.447 36.000 C 236.261 36.000,236.000 35.854,236.000 35.191 C 236.000 34.503,235.790 34.404,234.600 34.535 C 233.446 34.663,233.200 34.559,233.200 33.945 C 233.200 33.384,232.904 33.200,232.003 33.200 C 231.240 33.200,230.626 32.910,230.307 32.400 C 230.032 31.960,229.624 31.600,229.400 31.600 C 229.176 31.600,228.762 31.230,228.479 30.779 C 228.094 30.162,227.672 30.004,226.783 30.144 C 225.820 30.296,225.600 30.188,225.600 29.565 C 225.600 28.957,225.312 28.800,224.200 28.800 C 223.067 28.800,222.800 28.648,222.800 28.000 C 222.800 27.358,222.533 27.200,221.447 27.200 C 220.447 27.200,220.041 26.999,219.892 26.430 C 219.750 25.886,219.397 25.693,218.690 25.770 C 218.079 25.837,217.483 25.592,217.157 25.140 C 216.863 24.733,216.405 24.400,216.139 24.400 C 215.872 24.400,215.540 24.040,215.400 23.600 C 215.211 23.005,214.795 22.800,213.773 22.800 C 212.667 22.800,212.400 22.645,212.400 22.000 C 212.400 21.352,212.133 21.200,211.000 21.200 C 210.022 21.200,209.600 21.019,209.600 20.600 C 209.600 20.185,209.183 20.000,208.247 20.000 C 207.230 20.000,206.841 19.801,206.684 19.200 C 206.524 18.587,206.138 18.400,205.037 18.400 C 203.867 18.400,203.600 18.252,203.600 17.600 C 203.600 17.148,203.333 16.800,202.987 16.800 C 202.651 16.800,202.271 16.530,202.145 16.200 C 202.003 15.830,201.395 15.600,200.557 15.600 C 199.617 15.600,199.200 15.785,199.200 16.200 M171.600 33.049 C 171.600 33.580,171.491 33.608,171.000 33.200 C 170.670 32.926,170.400 32.634,170.400 32.551 C 170.400 32.468,170.670 32.400,171.000 32.400 C 171.330 32.400,171.600 32.692,171.600 33.049 M200.800 33.800 C 200.800 34.219,201.222 34.400,202.200 34.400 C 203.333 34.400,203.600 34.552,203.600 35.200 C 203.600 35.867,203.867 36.000,205.200 36.000 C 206.533 36.000,206.800 36.133,206.800 36.800 C 206.800 37.448,207.067 37.600,208.200 37.600 C 209.178 37.600,209.600 37.781,209.600 38.200 C 209.600 38.533,209.956 38.800,210.400 38.800 C 210.933 38.800,211.200 39.067,211.200 39.600 C 211.200 40.242,211.467 40.400,212.553 40.400 C 213.570 40.400,213.959 40.599,214.116 41.200 C 214.276 41.811,214.662 42.000,215.750 42.000 C 216.852 42.000,217.123 42.136,216.945 42.600 C 216.763 43.073,217.061 43.200,218.357 43.200 C 219.733 43.200,220.000 43.330,220.000 44.000 C 220.000 44.648,220.267 44.800,221.400 44.800 C 222.533 44.800,222.800 44.952,222.800 45.600 C 222.800 46.133,223.067 46.400,223.600 46.400 C 224.044 46.400,224.400 46.667,224.400 47.000 C 224.400 47.419,224.822 47.600,225.800 47.600 C 226.933 47.600,227.200 47.752,227.200 48.400 C 227.200 49.042,227.467 49.200,228.553 49.200 C 229.570 49.200,229.959 49.399,230.116 50.000 C 230.276 50.613,230.662 50.800,231.763 50.800 C 232.774 50.800,233.200 50.978,233.200 51.400 C 233.200 51.819,233.622 52.000,234.600 52.000 C 235.733 52.000,236.000 52.152,236.000 52.800 C 236.000 53.317,236.267 53.600,236.753 53.600 C 237.170 53.600,237.600 53.957,237.716 54.400 C 237.868 54.983,238.262 55.200,239.163 55.200 C 239.996 55.200,240.400 55.396,240.400 55.800 C 240.400 56.217,240.819 56.400,241.773 56.400 C 242.795 56.400,243.211 56.605,243.400 57.200 C 243.589 57.795,244.005 58.000,245.027 58.000 C 246.133 58.000,246.400 58.155,246.400 58.800 C 246.400 59.316,246.667 59.600,247.151 59.600 C 247.564 59.600,248.126 59.870,248.400 60.200 C 248.674 60.530,249.326 60.800,249.849 60.800 C 250.533 60.800,250.800 61.024,250.800 61.600 C 250.800 62.242,251.067 62.400,252.153 62.400 C 253.170 62.400,253.559 62.599,253.716 63.200 C 253.876 63.813,254.262 64.000,255.363 64.000 C 256.374 64.000,256.800 64.178,256.800 64.600 C 256.800 65.019,257.222 65.200,258.200 65.200 C 259.333 65.200,259.600 65.352,259.600 66.000 C 259.600 66.533,259.867 66.800,260.400 66.800 C 260.840 66.800,261.200 67.062,261.200 67.382 C 261.200 67.730,261.762 68.069,262.600 68.226 C 263.402 68.377,264.000 68.726,264.000 69.045 C 264.000 69.424,264.496 69.600,265.563 69.600 C 266.928 69.600,267.099 69.701,266.916 70.400 C 266.732 71.104,266.904 71.200,268.353 71.200 C 269.733 71.200,270.000 71.330,270.000 72.000 C 270.000 72.642,270.267 72.800,271.353 72.800 C 272.370 72.800,272.759 72.999,272.916 73.600 C 273.031 74.040,273.393 74.400,273.720 74.400 C 274.047 74.400,274.418 74.670,274.545 75.000 C 274.676 75.343,275.273 75.600,275.941 75.600 C 276.770 75.600,277.167 75.831,277.316 76.400 C 277.468 76.983,277.862 77.200,278.763 77.200 C 279.554 77.200,280.000 77.401,280.000 77.757 C 280.000 78.402,280.852 78.800,282.233 78.800 C 282.826 78.800,283.200 79.032,283.200 79.400 C 283.200 79.819,283.622 80.000,284.600 80.000 C 285.733 80.000,286.000 80.152,286.000 80.800 C 286.000 81.333,286.267 81.600,286.800 81.600 C 287.240 81.600,287.600 81.850,287.600 82.155 C 287.600 82.474,288.198 82.823,289.000 82.974 C 289.838 83.131,290.400 83.470,290.400 83.818 C 290.400 84.214,290.838 84.400,291.773 84.400 C 292.795 84.400,293.211 84.605,293.400 85.200 C 293.589 85.795,294.005 86.000,295.027 86.000 C 296.147 86.000,296.400 86.152,296.400 86.825 C 296.400 87.371,296.637 87.626,297.100 87.579 C 298.560 87.431,299.200 87.620,299.200 88.200 C 299.200 88.530,299.539 88.800,299.953 88.800 C 300.370 88.800,300.800 89.157,300.916 89.600 C 301.068 90.183,301.462 90.400,302.363 90.400 C 303.154 90.400,303.600 90.601,303.600 90.957 C 303.600 91.602,304.452 92.000,305.833 92.000 C 306.426 92.000,306.800 92.232,306.800 92.600 C 306.800 93.019,307.222 93.200,308.200 93.200 C 309.333 93.200,309.600 93.352,309.600 94.000 C 309.600 94.648,309.867 94.800,311.000 94.800 C 312.014 94.800,312.400 94.976,312.400 95.437 C 312.400 95.788,312.760 96.169,313.200 96.284 C 313.640 96.399,314.000 96.742,314.000 97.047 C 314.000 97.409,314.468 97.600,315.353 97.600 C 316.370 97.600,316.759 97.799,316.916 98.400 C 317.076 99.013,317.462 99.200,318.563 99.200 C 319.733 99.200,320.000 99.348,320.000 100.000 C 320.000 100.648,320.267 100.800,321.400 100.800 C 322.378 100.800,322.800 100.981,322.800 101.400 C 322.800 101.835,323.247 102.000,324.427 102.000 C 325.872 102.000,326.026 102.090,325.800 102.800 C 325.602 103.424,325.728 103.600,326.373 103.600 C 326.828 103.600,327.200 103.851,327.200 104.157 C 327.200 104.761,328.038 105.200,329.190 105.200 C 329.588 105.200,330.018 105.470,330.145 105.800 C 330.289 106.177,330.901 106.400,331.787 106.400 C 332.933 106.400,333.200 106.551,333.200 107.200 C 333.200 107.848,333.467 108.000,334.600 108.000 C 335.733 108.000,336.000 108.152,336.000 108.800 C 336.000 109.448,336.267 109.600,337.400 109.600 C 338.378 109.600,338.800 109.781,338.800 110.200 C 338.800 110.530,339.139 110.800,339.553 110.800 C 339.970 110.800,340.400 111.157,340.516 111.600 C 340.676 112.213,341.062 112.400,342.163 112.400 C 343.333 112.400,343.600 112.548,343.600 113.200 C 343.600 113.848,343.867 114.000,345.000 114.000 C 345.978 114.000,346.400 114.181,346.400 114.600 C 346.400 115.019,346.822 115.200,347.800 115.200 C 348.933 115.200,349.200 115.352,349.200 116.000 C 349.200 116.667,349.467 116.800,350.800 116.800 C 352.133 116.800,352.400 116.933,352.400 117.600 C 352.400 118.040,352.651 118.400,352.957 118.400 C 353.264 118.400,353.618 118.670,353.745 119.000 C 353.889 119.377,354.501 119.600,355.387 119.600 C 356.533 119.600,356.800 119.751,356.800 120.400 C 356.800 121.048,357.067 121.200,358.200 121.200 C 359.333 121.200,359.600 121.352,359.600 122.000 C 359.600 122.648,359.867 122.800,361.000 122.800 C 361.978 122.800,362.400 122.981,362.400 123.400 C 362.400 123.833,362.844 124.000,364.000 124.000 C 365.333 124.000,365.600 124.133,365.600 124.800 C 365.600 125.240,365.849 125.600,366.153 125.600 C 366.458 125.600,366.801 125.960,366.916 126.400 C 367.031 126.840,367.412 127.200,367.763 127.200 C 368.344 127.200,368.400 135.338,368.400 219.800 L 368.400 312.400 367.000 312.400 C 366.022 312.400,365.600 312.581,365.600 313.000 C 365.600 313.422,365.174 313.600,364.163 313.600 C 363.062 313.600,362.676 313.787,362.516 314.400 C 362.359 315.001,361.970 315.200,360.953 315.200 C 359.867 315.200,359.600 315.358,359.600 316.000 C 359.600 316.533,359.333 316.800,358.800 316.800 C 358.360 316.800,358.000 317.051,358.000 317.357 C 358.000 318.016,357.344 318.309,356.100 318.207 C 355.467 318.156,355.200 318.351,355.200 318.867 C 355.200 319.438,354.891 319.600,353.800 319.600 C 352.667 319.600,352.400 319.752,352.400 320.400 C 352.400 321.063,352.133 321.200,350.843 321.200 C 349.502 321.200,349.251 321.343,349.027 322.235 C 348.814 323.084,348.663 323.184,348.189 322.791 C 347.476 322.199,346.400 322.558,346.400 323.387 C 346.400 323.733,346.052 324.000,345.600 324.000 C 345.067 324.000,344.800 324.267,344.800 324.800 C 344.800 325.448,344.533 325.600,343.400 325.600 C 342.268 325.600,342.000 325.753,342.000 326.398 C 342.000 327.074,341.791 327.168,340.620 327.018 C 339.514 326.877,339.192 326.996,338.993 327.621 C 338.812 328.194,338.383 328.400,337.373 328.400 C 336.267 328.400,336.000 328.555,336.000 329.200 C 336.000 329.853,335.733 330.000,334.553 330.000 C 333.233 330.000,333.123 330.086,333.295 330.983 C 333.456 331.824,333.380 331.910,332.768 331.583 C 331.755 331.041,331.600 331.096,331.600 332.000 C 331.600 332.648,331.333 332.800,330.200 332.800 C 329.067 332.800,328.800 332.952,328.800 333.600 C 328.800 334.263,328.533 334.400,327.247 334.400 C 326.020 334.400,325.648 334.571,325.480 335.216 C 325.308 335.873,325.060 335.980,324.209 335.766 C 323.347 335.550,323.110 335.659,322.929 336.350 C 322.758 337.005,322.397 337.200,321.353 337.200 C 320.267 337.200,320.000 337.358,320.000 338.000 C 320.000 338.533,319.733 338.800,319.200 338.800 C 318.760 338.800,318.400 339.051,318.400 339.357 C 318.400 340.059,317.320 340.492,316.344 340.182 C 315.782 340.004,315.600 340.149,315.600 340.773 C 315.600 341.471,315.351 341.600,314.000 341.600 C 312.667 341.600,312.400 341.733,312.400 342.400 C 312.400 343.048,312.133 343.200,311.000 343.200 C 309.869 343.200,309.600 343.353,309.600 343.995 C 309.600 344.508,309.352 344.770,308.900 344.732 C 307.453 344.611,306.800 344.818,306.800 345.400 C 306.800 345.733,306.444 346.000,306.000 346.000 C 305.467 346.000,305.200 346.267,305.200 346.800 C 305.200 347.448,304.933 347.600,303.800 347.600 C 302.656 347.600,302.400 347.750,302.400 348.418 C 302.400 349.139,302.231 349.205,300.975 348.969 C 299.743 348.738,299.521 348.816,299.329 349.551 C 299.158 350.205,298.796 350.400,297.753 350.400 C 296.667 350.400,296.400 350.558,296.400 351.200 C 296.400 351.848,296.133 352.000,295.000 352.000 C 294.075 352.000,293.600 352.188,293.600 352.553 C 293.600 352.858,293.240 353.201,292.800 353.316 C 292.360 353.431,292.000 353.812,292.000 354.163 C 292.000 354.628,291.611 354.800,290.563 354.800 C 289.462 354.800,289.076 354.987,288.916 355.600 C 288.759 356.201,288.370 356.400,287.353 356.400 C 286.465 356.400,286.000 356.591,286.000 356.955 C 286.000 357.274,285.402 357.623,284.600 357.774 C 283.762 357.931,283.200 358.270,283.200 358.618 C 283.200 359.016,282.758 359.200,281.800 359.200 C 280.786 359.200,280.400 359.376,280.400 359.837 C 280.400 360.188,280.040 360.569,279.600 360.684 C 279.160 360.799,278.800 361.119,278.800 361.396 C 278.800 361.674,278.070 362.014,277.161 362.160 C 275.942 362.355,275.581 362.573,275.749 363.011 C 275.925 363.469,275.621 363.600,274.387 363.600 C 273.067 363.600,272.800 363.734,272.800 364.400 C 272.800 365.048,272.533 365.200,271.400 365.200 C 270.267 365.200,270.000 365.352,270.000 366.000 C 270.000 366.649,269.733 366.800,268.587 366.800 C 267.701 366.800,267.089 367.023,266.945 367.400 C 266.818 367.730,266.464 368.000,266.157 368.000 C 265.851 368.000,265.600 368.360,265.600 368.800 C 265.600 369.467,265.333 369.600,264.000 369.600 C 262.667 369.600,262.400 369.733,262.400 370.400 C 262.400 371.048,262.133 371.200,261.000 371.200 C 260.022 371.200,259.600 371.381,259.600 371.800 C 259.600 372.219,259.178 372.400,258.200 372.400 C 257.067 372.400,256.800 372.552,256.800 373.200 C 256.800 373.852,256.533 374.000,255.363 374.000 C 254.262 374.000,253.876 374.187,253.716 374.800 C 253.601 375.240,253.258 375.600,252.953 375.600 C 252.649 375.600,252.400 375.870,252.400 376.200 C 252.400 376.633,251.956 376.800,250.800 376.800 C 249.467 376.800,249.200 376.933,249.200 377.600 C 249.200 378.248,248.933 378.400,247.800 378.400 C 246.667 378.400,246.400 378.552,246.400 379.200 C 246.400 379.848,246.133 380.000,245.000 380.000 C 244.022 380.000,243.600 380.181,243.600 380.600 C 243.600 380.968,243.226 381.200,242.633 381.200 C 241.283 381.200,240.400 381.594,240.400 382.196 C 240.400 382.477,240.040 382.801,239.600 382.916 C 239.160 383.031,238.800 383.412,238.800 383.763 C 238.800 384.224,238.414 384.400,237.400 384.400 C 236.422 384.400,236.000 384.581,236.000 385.000 C 236.000 385.419,235.578 385.600,234.600 385.600 C 233.467 385.600,233.200 385.752,233.200 386.400 C 233.200 387.052,232.933 387.200,231.763 387.200 C 230.662 387.200,230.276 387.387,230.116 388.000 C 229.959 388.601,229.570 388.800,228.553 388.800 C 227.668 388.800,227.200 388.991,227.200 389.353 C 227.200 389.658,226.839 390.001,226.398 390.116 C 225.864 390.256,225.678 390.538,225.841 390.963 C 226.040 391.482,225.781 391.600,224.443 391.600 C 223.067 391.600,222.800 391.730,222.800 392.400 C 222.800 393.042,222.533 393.200,221.447 393.200 C 220.446 393.200,220.041 393.401,219.891 393.972 C 219.730 394.590,219.435 394.704,218.415 394.543 C 217.370 394.379,217.101 394.492,216.923 395.171 C 216.765 395.775,216.384 396.000,215.516 396.000 C 214.662 396.000,214.266 396.226,214.116 396.800 C 214.001 397.240,213.589 397.600,213.200 397.600 C 212.811 397.600,212.402 397.949,212.290 398.376 C 212.132 398.983,211.815 399.118,210.844 398.995 C 209.823 398.866,209.600 398.978,209.600 399.619 C 209.600 400.133,209.327 400.400,208.800 400.400 C 208.004 400.400,208.000 400.133,208.000 349.800 L 208.000 299.200 209.197 299.200 C 209.960 299.200,210.574 298.910,210.893 298.400 C 211.203 297.904,211.826 297.600,212.534 297.600 C 213.338 297.600,213.737 297.364,213.884 296.800 C 214.000 296.357,214.430 296.000,214.847 296.000 C 215.261 296.000,215.600 295.730,215.600 295.400 C 215.600 294.996,216.004 294.800,216.837 294.800 C 217.738 294.800,218.132 294.583,218.284 294.000 C 218.441 293.399,218.830 293.200,219.847 293.200 C 220.992 293.200,221.200 293.059,221.200 292.280 C 221.200 291.462,221.357 291.379,222.625 291.527 C 223.814 291.666,224.087 291.553,224.272 290.847 C 224.442 290.195,224.805 290.000,225.847 290.000 C 226.783 290.000,227.200 289.815,227.200 289.400 C 227.200 289.067,227.556 288.800,228.000 288.800 C 228.533 288.800,228.800 288.533,228.800 288.000 C 228.800 287.352,229.067 287.200,230.200 287.200 C 231.333 287.200,231.600 287.048,231.600 286.400 C 231.600 285.752,231.867 285.600,233.000 285.600 C 233.978 285.600,234.400 285.419,234.400 285.000 C 234.400 284.578,234.826 284.400,235.837 284.400 C 236.938 284.400,237.324 284.213,237.484 283.600 C 237.641 282.999,238.030 282.800,239.047 282.800 C 240.210 282.800,240.400 282.665,240.400 281.837 C 240.400 281.072,240.564 280.918,241.200 281.084 C 241.756 281.230,242.000 281.096,242.000 280.647 C 242.000 280.174,242.377 280.000,243.400 280.000 C 244.533 280.000,244.800 279.848,244.800 279.200 C 244.800 278.552,245.067 278.400,246.200 278.400 C 247.333 278.400,247.600 278.248,247.600 277.600 C 247.600 276.933,247.867 276.800,249.200 276.800 C 250.356 276.800,250.800 276.633,250.800 276.200 C 250.800 275.796,251.204 275.600,252.037 275.600 C 252.938 275.600,253.332 275.383,253.484 274.800 C 253.599 274.360,253.989 274.000,254.350 274.000 C 254.712 274.000,255.232 273.640,255.507 273.200 C 255.790 272.748,256.440 272.400,257.003 272.400 C 257.623 272.400,258.000 272.173,258.000 271.800 C 258.000 271.378,258.426 271.200,259.437 271.200 C 260.538 271.200,260.924 271.013,261.084 270.400 C 261.241 269.799,261.630 269.600,262.647 269.600 C 263.733 269.600,264.000 269.442,264.000 268.800 C 264.000 268.152,264.267 268.000,265.400 268.000 C 266.328 268.000,266.800 267.813,266.800 267.445 C 266.800 267.126,267.398 266.777,268.200 266.626 C 269.038 266.469,269.600 266.130,269.600 265.782 C 269.600 265.462,269.960 265.200,270.400 265.200 C 270.933 265.200,271.200 264.933,271.200 264.400 C 271.200 263.733,271.467 263.600,272.800 263.600 C 273.956 263.600,274.400 263.433,274.400 263.000 C 274.400 262.670,274.670 262.400,275.000 262.400 C 275.530 262.400,275.600 257.311,275.600 219.000 C 275.600 184.373,275.498 175.600,275.096 175.600 C 274.819 175.600,274.362 175.230,274.079 174.779 C 273.694 174.162,273.272 174.004,272.383 174.144 C 271.420 174.296,271.200 174.188,271.200 173.565 C 271.200 172.957,270.912 172.800,269.800 172.800 C 268.667 172.800,268.400 172.648,268.400 172.000 C 268.400 171.358,268.133 171.200,267.047 171.200 C 266.030 171.200,265.641 171.001,265.484 170.400 C 265.345 169.867,264.938 169.600,264.266 169.600 C 263.711 169.600,262.987 169.330,262.657 169.000 C 262.327 168.670,261.876 168.400,261.656 168.400 C 261.435 168.400,261.140 168.040,261.000 167.600 C 260.811 167.005,260.395 166.800,259.373 166.800 C 258.267 166.800,258.000 166.645,258.000 166.000 C 258.000 165.352,257.733 165.200,256.600 165.200 C 255.622 165.200,255.200 165.019,255.200 164.600 C 255.200 164.185,254.783 164.000,253.847 164.000 C 252.830 164.000,252.441 163.801,252.284 163.200 C 252.166 162.747,251.738 162.400,251.299 162.400 C 250.873 162.400,250.198 162.040,249.800 161.600 C 249.402 161.160,248.744 160.800,248.338 160.800 C 247.932 160.800,247.600 160.530,247.600 160.200 C 247.600 159.781,247.178 159.600,246.200 159.600 C 245.067 159.600,244.800 159.448,244.800 158.800 C 244.800 158.158,244.533 158.000,243.447 158.000 C 242.430 158.000,242.041 157.801,241.884 157.200 C 241.724 156.587,241.338 156.400,240.237 156.400 C 239.226 156.400,238.800 156.222,238.800 155.800 C 238.800 155.467,238.444 155.200,238.000 155.200 C 237.560 155.200,237.200 154.949,237.200 154.643 C 237.200 154.031,236.359 153.600,235.167 153.600 C 234.667 153.600,234.400 153.322,234.400 152.800 C 234.400 152.152,234.133 152.000,233.000 152.000 C 232.022 152.000,231.600 151.819,231.600 151.400 C 231.600 150.981,231.178 150.800,230.200 150.800 C 229.067 150.800,228.800 150.648,228.800 150.000 C 228.800 149.333,228.533 149.200,227.200 149.200 C 225.867 149.200,225.600 149.067,225.600 148.400 C 225.600 147.882,225.333 147.600,224.843 147.600 C 224.426 147.600,223.982 147.330,223.855 147.000 C 223.721 146.649,223.121 146.400,222.413 146.400 C 221.467 146.400,221.200 146.224,221.200 145.600 C 221.200 144.952,220.933 144.800,219.800 144.800 C 218.667 144.800,218.400 144.648,218.400 144.000 C 218.400 143.352,218.133 143.200,217.000 143.200 C 216.027 143.200,215.600 143.018,215.600 142.605 C 215.600 142.220,215.035 141.919,214.000 141.754 C 213.035 141.599,212.400 141.280,212.400 140.949 C 212.400 140.647,212.040 140.400,211.600 140.400 C 211.160 140.400,210.800 140.149,210.800 139.843 C 210.800 139.231,209.959 138.800,208.767 138.800 C 208.345 138.800,208.000 138.550,208.000 138.245 C 208.000 137.926,207.402 137.577,206.600 137.426 C 205.762 137.269,205.200 136.930,205.200 136.582 C 205.200 136.187,204.764 136.000,203.847 136.000 C 202.830 136.000,202.441 135.801,202.284 135.200 C 202.109 134.532,201.738 134.400,200.037 134.400 C 198.267 134.400,198.000 134.505,198.000 135.200 C 198.000 135.733,197.733 136.000,197.200 136.000 C 196.692 136.000,196.400 136.267,196.400 136.731 C 196.400 137.311,196.159 137.426,195.229 137.290 C 194.355 137.161,193.925 137.331,193.533 137.959 C 193.174 138.534,192.596 138.800,191.704 138.800 C 190.667 138.800,190.400 138.964,190.400 139.600 C 190.400 140.248,190.133 140.400,189.000 140.400 C 188.042 140.400,187.600 140.584,187.600 140.982 C 187.600 141.328,187.044 141.668,186.228 141.821 C 185.473 141.963,184.759 142.331,184.640 142.639 C 184.522 142.948,184.149 143.200,183.813 143.200 C 183.467 143.200,183.200 143.548,183.200 144.000 C 183.200 144.669,182.933 144.800,181.573 144.800 C 180.128 144.800,179.974 144.890,180.200 145.600 C 180.426 146.310,180.272 146.400,178.827 146.400 C 177.647 146.400,177.200 146.565,177.200 147.000 C 177.200 147.419,176.778 147.600,175.800 147.600 C 174.667 147.600,174.400 147.752,174.400 148.400 C 174.400 149.052,174.133 149.200,172.963 149.200 C 171.862 149.200,171.476 149.387,171.316 150.000 C 171.180 150.521,170.770 150.800,170.141 150.800 C 169.610 150.800,169.071 151.070,168.945 151.400 C 168.818 151.730,168.276 152.000,167.740 152.000 C 167.033 152.000,166.797 152.193,166.882 152.700 C 166.974 153.246,166.671 153.427,165.500 153.524 C 164.325 153.621,164.000 153.816,164.000 154.424 C 164.000 155.044,163.719 155.200,162.600 155.200 C 161.622 155.200,161.200 155.381,161.200 155.800 C 161.200 156.222,160.774 156.400,159.763 156.400 C 158.662 156.400,158.276 156.587,158.116 157.200 C 157.966 157.774,157.570 158.000,156.716 158.000 C 155.862 158.000,155.466 158.226,155.316 158.800 C 155.200 159.243,154.770 159.600,154.353 159.600 C 153.939 159.600,153.600 159.870,153.600 160.200 C 153.600 160.619,153.178 160.800,152.200 160.800 C 151.067 160.800,150.800 160.952,150.800 161.600 C 150.800 162.248,150.533 162.400,149.400 162.400 C 148.267 162.400,148.000 162.552,148.000 163.200 C 148.000 163.867,147.733 164.000,146.400 164.000 C 145.244 164.000,144.800 164.167,144.800 164.600 C 144.800 164.930,144.455 165.200,144.033 165.200 C 142.841 165.200,142.000 165.631,142.000 166.243 C 142.000 166.549,141.640 166.800,141.200 166.800 C 140.667 166.800,140.400 167.067,140.400 167.600 C 140.400 168.248,140.133 168.400,139.000 168.400 C 138.022 168.400,137.600 168.581,137.600 169.000 C 137.600 169.422,137.174 169.600,136.163 169.600 C 135.062 169.600,134.676 169.787,134.516 170.400 C 134.359 171.001,133.970 171.200,132.953 171.200 C 131.867 171.200,131.600 171.358,131.600 172.000 C 131.600 172.642,131.333 172.800,130.247 172.800 C 129.202 172.800,128.842 172.994,128.671 173.652 C 128.522 174.221,128.241 174.424,127.824 174.265 C 127.389 174.098,127.200 174.264,127.200 174.813 C 127.200 175.446,126.926 175.600,125.800 175.600 L 124.400 175.600 124.400 219.000 C 124.400 257.311,124.470 262.400,125.000 262.400 C 125.330 262.400,125.600 262.670,125.600 263.000 C 125.600 263.433,126.044 263.600,127.200 263.600 C 128.533 263.600,128.800 263.733,128.800 264.400 C 128.800 265.048,129.067 265.200,130.200 265.200 C 131.333 265.200,131.600 265.352,131.600 266.000 C 131.600 266.728,132.848 267.096,134.486 266.852 C 134.643 266.829,134.668 267.077,134.543 267.405 C 134.388 267.809,134.570 268.000,135.111 268.000 C 135.570 268.000,135.995 268.338,136.116 268.800 C 136.267 269.378,136.662 269.600,137.536 269.600 C 138.395 269.600,138.820 269.832,139.000 270.400 C 139.189 270.995,139.605 271.200,140.627 271.200 C 141.581 271.200,142.000 271.383,142.000 271.800 C 142.000 272.219,142.422 272.400,143.400 272.400 C 144.533 272.400,144.800 272.552,144.800 273.200 C 144.800 273.739,145.067 274.000,145.617 274.000 C 146.066 274.000,146.820 274.360,147.292 274.800 C 147.764 275.240,148.387 275.600,148.675 275.600 C 148.964 275.600,149.200 275.888,149.200 276.240 C 149.200 276.750,149.552 276.852,150.926 276.740 C 152.530 276.610,152.639 276.663,152.479 277.500 C 152.326 278.299,152.469 278.400,153.753 278.400 C 154.933 278.400,155.200 278.547,155.200 279.200 C 155.200 279.848,155.467 280.000,156.600 280.000 C 157.578 280.000,158.000 280.181,158.000 280.600 C 158.000 280.930,158.320 281.200,158.711 281.200 C 159.102 281.200,159.730 281.560,160.107 282.000 C 160.484 282.440,161.133 282.800,161.549 282.800 C 161.970 282.800,162.400 283.155,162.516 283.600 C 162.676 284.213,163.062 284.400,164.163 284.400 C 165.174 284.400,165.600 284.578,165.600 285.000 C 165.600 285.419,166.022 285.600,167.000 285.600 C 168.133 285.600,168.400 285.752,168.400 286.400 C 168.400 287.070,168.667 287.200,170.043 287.200 C 171.354 287.200,171.638 287.324,171.450 287.813 C 171.294 288.220,171.548 288.552,172.208 288.803 C 172.753 289.010,173.200 289.365,173.200 289.590 C 173.200 289.816,173.719 290.000,174.353 290.000 C 175.170 290.000,175.568 290.233,175.716 290.800 C 175.876 291.413,176.262 291.600,177.363 291.600 C 178.533 291.600,178.800 291.748,178.800 292.400 C 178.800 293.042,179.067 293.200,180.153 293.200 C 181.170 293.200,181.559 293.399,181.716 294.000 C 181.868 294.583,182.262 294.800,183.163 294.800 C 183.996 294.800,184.400 294.996,184.400 295.400 C 184.400 295.730,184.720 296.000,185.111 296.000 C 185.502 296.000,186.130 296.360,186.507 296.800 C 186.884 297.240,187.548 297.600,187.982 297.600 C 188.416 297.600,188.965 297.960,189.200 298.400 C 189.480 298.924,190.038 299.200,190.814 299.200 C 191.602 299.200,192.000 299.402,192.000 299.800 C 192.000 300.133,192.356 300.400,192.800 300.400 C 193.596 300.400,193.600 300.649,193.546 351.300 C 193.516 379.295,193.413 401.795,193.318 401.300 C 193.222 400.805,192.908 400.400,192.619 400.400 C 192.330 400.400,191.995 400.024,191.875 399.564 C 191.691 398.862,191.426 398.758,190.228 398.920 C 189.026 399.082,188.800 398.992,188.800 398.356 C 188.800 397.759,188.506 397.600,187.400 397.600 C 186.267 397.600,186.000 397.448,186.000 396.800 C 186.000 396.158,185.733 396.000,184.647 396.000 C 183.654 396.000,183.240 395.798,183.095 395.242 C 182.940 394.648,182.582 394.504,181.448 394.580 C 180.272 394.659,180.000 394.539,180.000 393.939 C 180.000 393.532,179.751 393.200,179.447 393.200 C 179.142 393.200,178.799 392.840,178.684 392.400 C 178.524 391.787,178.138 391.600,177.037 391.600 C 175.867 391.600,175.600 391.452,175.600 390.800 C 175.600 390.152,175.333 390.000,174.200 390.000 C 173.222 390.000,172.800 389.819,172.800 389.400 C 172.800 388.981,172.378 388.800,171.400 388.800 C 170.267 388.800,170.000 388.648,170.000 388.000 C 170.000 387.333,169.733 387.200,168.400 387.200 C 167.067 387.200,166.800 387.067,166.800 386.400 C 166.800 385.948,166.533 385.600,166.187 385.600 C 165.851 385.600,165.471 385.330,165.345 385.000 C 165.203 384.630,164.595 384.400,163.757 384.400 C 162.667 384.400,162.400 384.243,162.400 383.600 C 162.400 382.952,162.133 382.800,161.000 382.800 C 159.867 382.800,159.600 382.648,159.600 382.000 C 159.600 381.352,159.333 381.200,158.200 381.200 C 157.222 381.200,156.800 381.019,156.800 380.600 C 156.800 380.167,156.356 380.000,155.200 380.000 C 153.867 380.000,153.600 379.867,153.600 379.200 C 153.600 378.760,153.336 378.400,153.014 378.400 C 152.692 378.400,152.235 378.040,152.000 377.600 C 151.720 377.076,151.162 376.800,150.386 376.800 C 149.598 376.800,149.200 376.598,149.200 376.200 C 149.200 375.781,148.778 375.600,147.800 375.600 C 146.667 375.600,146.400 375.448,146.400 374.800 C 146.400 374.133,146.133 374.000,144.800 374.000 C 143.467 374.000,143.200 373.867,143.200 373.200 C 143.200 372.552,142.933 372.400,141.800 372.400 C 140.822 372.400,140.400 372.219,140.400 371.800 C 140.400 371.467,140.044 371.200,139.600 371.200 C 139.067 371.200,138.800 370.933,138.800 370.400 C 138.800 369.752,138.533 369.600,137.400 369.600 C 136.267 369.600,136.000 369.448,136.000 368.800 C 136.000 368.152,135.733 368.000,134.600 368.000 C 133.622 368.000,133.200 367.819,133.200 367.400 C 133.200 366.967,132.756 366.800,131.600 366.800 C 130.267 366.800,130.000 366.667,130.000 366.000 C 130.000 365.352,129.733 365.200,128.600 365.200 C 127.467 365.200,127.200 365.048,127.200 364.400 C 127.200 363.867,126.933 363.600,126.400 363.600 C 125.956 363.600,125.600 363.333,125.600 363.000 C 125.600 362.670,125.255 362.400,124.833 362.400 C 123.641 362.400,122.800 361.969,122.800 361.357 C 122.800 360.991,122.337 360.800,121.447 360.800 C 120.430 360.800,120.041 360.601,119.884 360.000 C 119.725 359.394,119.338 359.200,118.284 359.200 C 117.230 359.200,116.843 359.006,116.684 358.400 C 116.532 357.817,116.138 357.600,115.237 357.600 C 114.404 357.600,114.000 357.404,114.000 357.000 C 114.000 356.670,113.661 356.400,113.247 356.400 C 112.830 356.400,112.400 356.043,112.284 355.600 C 112.132 355.017,111.738 354.800,110.837 354.800 C 110.021 354.800,109.600 354.602,109.600 354.218 C 109.600 353.872,109.044 353.532,108.228 353.379 C 107.473 353.237,106.759 352.869,106.640 352.561 C 106.512 352.226,105.855 352.000,105.013 352.000 C 103.867 352.000,103.600 351.849,103.600 351.200 C 103.600 350.552,103.333 350.400,102.200 350.400 C 101.209 350.400,100.800 350.221,100.800 349.787 C 100.800 349.451,100.485 349.059,100.100 348.918 C 99.715 348.776,99.256 348.422,99.080 348.130 C 98.904 347.839,98.250 347.600,97.627 347.600 C 96.830 347.600,96.431 347.363,96.284 346.800 C 96.124 346.187,95.738 346.000,94.637 346.000 C 93.441 346.000,93.200 345.858,93.200 345.155 C 93.200 344.407,93.041 344.341,91.800 344.574 C 90.571 344.804,90.400 344.736,90.400 344.018 C 90.400 343.350,90.144 343.200,89.000 343.200 C 87.867 343.200,87.600 343.048,87.600 342.400 C 87.600 341.925,87.333 341.600,86.944 341.600 C 86.583 341.600,86.074 341.308,85.813 340.950 C 85.551 340.593,84.872 340.300,84.302 340.300 C 83.627 340.300,83.199 340.040,83.071 339.550 C 82.925 338.992,82.507 338.800,81.437 338.800 C 80.267 338.800,80.000 338.652,80.000 338.000 C 80.000 337.352,79.733 337.200,78.600 337.200 C 77.441 337.200,77.200 337.054,77.200 336.353 C 77.200 335.691,77.018 335.554,76.361 335.726 C 75.279 336.009,74.400 335.664,74.400 334.957 C 74.400 334.651,74.083 334.400,73.696 334.400 C 73.309 334.400,72.768 334.040,72.493 333.600 C 72.218 333.160,71.588 332.800,71.093 332.800 C 70.598 332.800,69.957 332.423,69.670 331.963 C 69.275 331.331,68.901 331.188,68.140 331.379 C 67.345 331.579,67.089 331.461,66.920 330.816 C 66.758 330.198,66.379 330.000,65.353 330.000 C 64.267 330.000,64.000 329.842,64.000 329.200 C 64.000 328.558,63.733 328.400,62.647 328.400 C 61.629 328.400,61.241 328.201,61.084 327.598 C 60.949 327.083,60.657 326.880,60.268 327.029 C 59.898 327.171,59.488 326.937,59.217 326.431 C 58.956 325.944,58.374 325.600,57.813 325.600 C 57.205 325.600,56.761 325.307,56.600 324.800 C 56.411 324.205,55.995 324.000,54.973 324.000 C 53.864 324.000,53.600 323.845,53.600 323.196 C 53.600 322.511,53.393 322.418,52.200 322.566 C 51.025 322.712,50.800 322.616,50.800 321.970 C 50.800 321.338,50.512 321.200,49.200 321.200 C 47.867 321.200,47.600 321.067,47.600 320.400 C 47.600 319.889,47.333 319.600,46.862 319.600 C 46.456 319.600,45.810 319.253,45.427 318.830 C 45.044 318.406,44.386 318.126,43.965 318.207 C 43.412 318.313,43.200 318.126,43.200 317.533 C 43.200 316.831,42.998 316.736,41.800 316.876 C 40.559 317.021,40.400 316.935,40.400 316.120 C 40.400 315.341,40.192 315.200,39.047 315.200 C 38.030 315.200,37.641 315.001,37.484 314.400 C 37.324 313.787,36.938 313.600,35.837 313.600 C 34.826 313.600,34.400 313.422,34.400 313.000 C 34.400 312.581,33.978 312.400,33.000 312.400 L 31.600 312.400 31.600 219.800 C 31.600 135.338,31.656 127.200,32.237 127.200 C 32.588 127.200,32.969 126.840,33.084 126.400 C 33.241 125.799,33.630 125.600,34.647 125.600 C 35.733 125.600,36.000 125.442,36.000 124.800 C 36.000 124.176,36.267 124.000,37.213 124.000 C 37.921 124.000,38.521 123.751,38.655 123.400 C 38.782 123.070,39.226 122.800,39.643 122.800 C 40.166 122.800,40.400 122.516,40.400 121.880 C 40.400 121.065,40.559 120.979,41.800 121.124 C 43.009 121.265,43.200 121.173,43.200 120.444 C 43.200 119.726,43.439 119.600,44.800 119.600 C 45.956 119.600,46.400 119.433,46.400 119.000 C 46.400 118.596,46.804 118.400,47.637 118.400 C 48.538 118.400,48.932 118.183,49.084 117.600 C 49.234 117.026,49.630 116.800,50.484 116.800 C 51.338 116.800,51.734 116.574,51.884 116.000 C 52.000 115.557,52.430 115.200,52.847 115.200 C 53.261 115.200,53.600 114.930,53.600 114.600 C 53.600 114.178,54.026 114.000,55.037 114.000 C 56.138 114.000,56.524 113.813,56.684 113.200 C 56.841 112.599,57.230 112.400,58.247 112.400 C 59.333 112.400,59.600 112.242,59.600 111.600 C 59.600 110.952,59.867 110.800,61.000 110.800 C 61.928 110.800,62.400 110.613,62.400 110.245 C 62.400 109.926,62.998 109.577,63.800 109.426 C 64.638 109.269,65.200 108.930,65.200 108.582 C 65.200 108.262,65.560 108.000,66.000 108.000 C 66.566 108.000,66.800 107.733,66.800 107.089 C 66.800 106.268,66.957 106.194,68.400 106.331 C 69.665 106.452,70.000 106.350,70.000 105.842 C 70.000 105.391,70.368 105.200,71.237 105.200 C 72.138 105.200,72.532 104.983,72.684 104.400 C 72.841 103.799,73.230 103.600,74.247 103.600 C 75.333 103.600,75.600 103.442,75.600 102.800 C 75.600 102.176,75.867 102.000,76.813 102.000 C 77.521 102.000,78.121 101.751,78.255 101.400 C 78.382 101.070,78.826 100.800,79.243 100.800 C 79.733 100.800,80.000 100.518,80.000 100.000 C 80.000 99.333,80.267 99.200,81.600 99.200 C 82.933 99.200,83.200 99.067,83.200 98.400 C 83.200 97.752,83.467 97.600,84.600 97.600 C 85.578 97.600,86.000 97.419,86.000 97.000 C 86.000 96.596,86.404 96.400,87.237 96.400 C 88.138 96.400,88.532 96.183,88.684 95.600 C 88.834 95.026,89.230 94.800,90.084 94.800 C 90.938 94.800,91.334 94.574,91.484 94.000 C 91.600 93.557,92.030 93.200,92.447 93.200 C 92.861 93.200,93.200 92.930,93.200 92.600 C 93.200 92.178,93.626 92.000,94.637 92.000 C 95.738 92.000,96.124 91.813,96.284 91.200 C 96.441 90.599,96.830 90.400,97.847 90.400 C 98.933 90.400,99.200 90.242,99.200 89.600 C 99.200 88.951,99.467 88.800,100.613 88.800 C 101.472 88.800,102.112 88.575,102.246 88.224 C 102.367 87.908,102.992 87.534,103.633 87.393 C 104.275 87.252,104.800 86.966,104.800 86.758 C 104.800 86.550,105.250 86.209,105.800 86.000 C 106.350 85.791,106.800 85.345,106.800 85.010 C 106.800 84.580,107.212 84.400,108.200 84.400 C 109.178 84.400,109.600 84.219,109.600 83.800 C 109.600 83.396,110.004 83.200,110.837 83.200 C 111.738 83.200,112.132 82.983,112.284 82.400 C 112.440 81.803,112.830 81.600,113.820 81.600 C 114.795 81.600,115.213 81.388,115.400 80.800 C 115.578 80.240,116.005 80.000,116.827 80.000 C 117.472 80.000,118.000 79.816,118.000 79.590 C 118.000 79.365,118.450 79.009,119.000 78.800 C 119.550 78.591,120.000 78.145,120.000 77.810 C 120.000 77.380,120.412 77.200,121.400 77.200 C 122.533 77.200,122.800 77.048,122.800 76.400 C 122.800 75.752,123.067 75.600,124.200 75.600 C 125.178 75.600,125.600 75.419,125.600 75.000 C 125.600 74.399,126.006 74.248,127.283 74.376 C 127.658 74.414,128.197 74.074,128.479 73.622 C 128.761 73.170,129.309 72.800,129.696 72.800 C 130.083 72.800,130.760 72.440,131.200 72.000 C 131.640 71.560,132.270 71.200,132.600 71.200 C 132.933 71.200,133.200 70.844,133.200 70.400 C 133.200 69.747,133.467 69.600,134.647 69.600 C 135.831 69.600,136.060 69.472,135.909 68.895 C 135.752 68.296,135.954 68.213,137.262 68.337 C 138.605 68.465,138.800 68.377,138.800 67.642 C 138.800 66.942,139.043 66.800,140.237 66.800 C 141.338 66.800,141.724 66.613,141.884 66.000 C 142.033 65.431,142.430 65.200,143.259 65.200 C 143.927 65.200,144.524 64.943,144.655 64.600 C 144.782 64.270,145.226 64.000,145.643 64.000 C 146.133 64.000,146.400 63.718,146.400 63.200 C 146.400 62.552,146.667 62.400,147.800 62.400 C 148.933 62.400,149.200 62.248,149.200 61.600 C 149.200 60.933,149.467 60.800,150.800 60.800 C 151.956 60.800,152.400 60.633,152.400 60.200 C 152.400 59.796,152.804 59.600,153.637 59.600 C 154.538 59.600,154.932 59.383,155.084 58.800 C 155.234 58.226,155.630 58.000,156.484 58.000 C 157.338 58.000,157.734 57.774,157.884 57.200 C 158.000 56.757,158.430 56.400,158.847 56.400 C 159.261 56.400,159.600 56.130,159.600 55.800 C 159.600 55.381,160.022 55.200,161.000 55.200 C 162.133 55.200,162.400 55.048,162.400 54.400 C 162.400 53.748,162.667 53.600,163.837 53.600 C 164.938 53.600,165.324 53.413,165.484 52.800 C 165.641 52.199,166.030 52.000,167.047 52.000 C 167.935 52.000,168.400 51.809,168.400 51.445 C 168.400 51.126,168.998 50.777,169.800 50.626 C 170.638 50.469,171.200 50.130,171.200 49.782 C 171.200 49.462,171.560 49.200,172.000 49.200 C 172.533 49.200,172.800 48.933,172.800 48.400 C 172.800 47.752,173.067 47.600,174.200 47.600 C 175.178 47.600,175.600 47.419,175.600 47.000 C 175.600 46.578,176.026 46.400,177.037 46.400 C 178.138 46.400,178.524 46.213,178.684 45.600 C 178.841 44.999,179.230 44.800,180.247 44.800 C 181.397 44.800,181.600 44.660,181.600 43.869 C 181.600 43.063,181.760 42.962,182.795 43.114 C 183.641 43.238,184.063 43.101,184.238 42.645 C 184.374 42.290,184.826 42.000,185.243 42.000 C 185.733 42.000,186.000 41.718,186.000 41.200 C 186.000 40.552,186.267 40.400,187.400 40.400 C 188.533 40.400,188.800 40.248,188.800 39.600 C 188.800 38.933,189.067 38.800,190.400 38.800 C 191.556 38.800,192.000 38.633,192.000 38.200 C 192.000 37.796,192.404 37.600,193.237 37.600 C 194.138 37.600,194.532 37.383,194.684 36.800 C 194.834 36.226,195.230 36.000,196.084 36.000 C 196.938 36.000,197.334 35.774,197.484 35.200 C 197.600 34.757,198.030 34.400,198.447 34.400 C 198.861 34.400,199.200 34.130,199.200 33.800 C 199.200 33.467,199.556 33.200,200.000 33.200 C 200.444 33.200,200.800 33.467,200.800 33.800 M202.400 152.800 C 202.400 153.240,202.651 153.600,202.957 153.600 C 203.264 153.600,203.614 153.860,203.736 154.178 C 203.858 154.496,204.597 154.876,205.379 155.022 C 206.197 155.176,206.800 155.525,206.800 155.845 C 206.800 156.213,207.272 156.400,208.200 156.400 C 209.333 156.400,209.600 156.552,209.600 157.200 C 209.600 157.842,209.867 158.000,210.953 158.000 C 211.970 158.000,212.359 158.199,212.516 158.800 C 212.676 159.413,213.062 159.600,214.163 159.600 C 215.174 159.600,215.600 159.778,215.600 160.200 C 215.600 160.530,215.858 160.800,216.173 160.800 C 216.488 160.800,216.860 161.160,217.000 161.600 C 217.187 162.188,217.605 162.400,218.580 162.400 C 219.570 162.400,219.960 162.603,220.116 163.200 C 220.268 163.783,220.662 164.000,221.563 164.000 C 222.396 164.000,222.800 164.196,222.800 164.600 C 222.800 165.035,223.247 165.200,224.427 165.200 C 225.900 165.200,226.029 165.280,225.786 166.044 C 225.537 166.828,225.643 166.877,227.285 166.744 C 228.933 166.610,229.040 166.660,228.879 167.500 C 228.757 168.139,228.898 168.400,229.366 168.400 C 229.728 168.400,230.129 168.670,230.255 169.000 C 230.397 169.370,231.005 169.600,231.843 169.600 C 232.933 169.600,233.200 169.757,233.200 170.400 C 233.200 171.042,233.467 171.200,234.553 171.200 C 235.570 171.200,235.959 171.399,236.116 172.000 C 236.266 172.575,236.662 172.800,237.520 172.800 C 238.234 172.800,238.811 173.051,238.954 173.426 C 239.087 173.770,239.511 174.019,239.897 173.980 C 241.477 173.818,242.000 174.023,242.000 174.800 C 242.000 175.333,242.267 175.600,242.800 175.600 C 243.240 175.600,243.600 175.851,243.600 176.157 C 243.600 176.769,244.441 177.200,245.633 177.200 C 246.055 177.200,246.400 177.470,246.400 177.800 C 246.400 178.219,246.822 178.400,247.800 178.400 C 248.933 178.400,249.200 178.552,249.200 179.200 C 249.200 179.867,249.467 180.000,250.800 180.000 C 252.133 180.000,252.400 180.133,252.400 180.800 C 252.400 181.448,252.667 181.600,253.800 181.600 C 254.778 181.600,255.200 181.781,255.200 182.200 C 255.200 182.533,255.556 182.800,256.000 182.800 C 256.533 182.800,256.800 183.067,256.800 183.600 C 256.800 184.248,257.067 184.400,258.200 184.400 C 259.214 184.400,259.600 184.576,259.600 185.037 C 259.600 185.388,259.960 185.769,260.400 185.884 C 261.399 186.145,261.697 253.558,260.700 253.642 C 260.425 253.666,259.705 253.652,259.100 253.612 C 258.242 253.556,258.000 253.716,258.000 254.340 C 258.000 255.020,257.791 255.114,256.600 254.966 C 255.407 254.818,255.200 254.911,255.200 255.596 C 255.200 256.248,254.936 256.400,253.800 256.400 C 252.667 256.400,252.400 256.552,252.400 257.200 C 252.400 257.852,252.133 258.000,250.963 258.000 C 249.848 258.000,249.477 258.185,249.310 258.823 C 249.182 259.311,248.872 259.560,248.547 259.435 C 248.198 259.301,248.000 259.511,248.000 260.013 C 248.000 260.665,247.725 260.800,246.400 260.800 C 245.067 260.800,244.800 260.933,244.800 261.600 C 244.800 262.242,244.533 262.400,243.447 262.400 C 242.431 262.400,242.041 262.599,241.885 263.198 C 241.715 263.845,241.451 263.950,240.478 263.756 C 239.497 263.559,239.232 263.668,239.013 264.358 C 238.819 264.970,238.415 265.200,237.536 265.200 C 236.662 265.200,236.267 265.422,236.116 266.000 C 236.001 266.440,235.589 266.800,235.200 266.800 C 234.811 266.800,234.393 267.182,234.271 267.650 C 234.090 268.341,233.853 268.450,232.991 268.234 C 232.140 268.020,231.892 268.127,231.720 268.784 C 231.558 269.402,231.179 269.600,230.153 269.600 C 229.081 269.600,228.800 269.761,228.800 270.376 C 228.800 270.984,228.475 271.179,227.300 271.276 C 226.062 271.378,225.776 271.569,225.664 272.365 C 225.589 272.896,225.408 273.137,225.263 272.901 C 224.894 272.306,222.800 272.769,222.800 273.447 C 222.800 273.751,222.432 274.000,221.982 274.000 C 221.426 274.000,221.202 274.223,221.282 274.700 C 221.374 275.246,221.071 275.427,219.900 275.524 C 218.732 275.621,218.400 275.818,218.400 276.414 C 218.400 277.055,218.200 277.140,217.177 276.935 C 216.156 276.731,215.917 276.832,215.730 277.545 C 215.556 278.211,215.200 278.400,214.116 278.400 C 213.062 278.400,212.675 278.594,212.516 279.200 C 212.369 279.763,211.970 280.000,211.173 280.000 C 210.550 280.000,209.896 280.239,209.720 280.530 C 209.544 280.822,209.085 281.176,208.700 281.318 C 208.315 281.459,208.000 281.851,208.000 282.187 C 208.000 282.621,207.591 282.800,206.600 282.800 C 205.467 282.800,205.200 282.952,205.200 283.600 C 205.200 284.248,204.933 284.400,203.800 284.400 C 202.822 284.400,202.400 284.581,202.400 285.000 C 202.400 285.330,202.085 285.612,201.700 285.627 C 201.315 285.642,200.235 285.687,199.300 285.727 C 197.919 285.786,197.599 285.668,197.600 285.100 C 197.600 284.715,197.351 284.400,197.047 284.400 C 196.742 284.400,196.399 284.040,196.284 283.600 C 196.124 282.987,195.738 282.800,194.637 282.800 C 193.675 282.800,193.200 282.616,193.200 282.243 C 193.200 281.631,192.359 281.200,191.167 281.200 C 190.745 281.200,190.400 280.930,190.400 280.600 C 190.400 280.181,189.978 280.000,189.000 280.000 C 187.867 280.000,187.600 279.848,187.600 279.200 C 187.600 278.533,187.333 278.400,186.000 278.400 C 184.637 278.400,184.400 278.274,184.400 277.553 C 184.400 276.909,184.213 276.756,183.614 276.912 C 183.181 277.025,182.843 277.001,182.861 276.859 C 182.988 275.885,182.657 275.600,181.400 275.600 C 180.267 275.600,180.000 275.448,180.000 274.800 C 180.000 274.158,179.733 274.000,178.647 274.000 C 177.609 274.000,177.242 273.804,177.074 273.162 C 176.890 272.459,176.658 272.368,175.628 272.594 C 174.565 272.827,174.400 272.752,174.400 272.032 C 174.400 271.328,174.154 271.200,172.800 271.200 C 171.467 271.200,171.200 271.067,171.200 270.400 C 171.200 269.867,170.933 269.600,170.400 269.600 C 169.956 269.600,169.600 269.333,169.600 269.000 C 169.600 268.418,168.947 268.211,167.500 268.332 C 167.048 268.370,166.800 268.108,166.800 267.595 C 166.800 266.953,166.531 266.800,165.400 266.800 C 164.267 266.800,164.000 266.648,164.000 266.000 C 164.000 265.358,163.733 265.200,162.647 265.200 C 161.647 265.200,161.241 264.999,161.092 264.430 C 160.932 263.819,160.591 263.683,159.445 263.774 C 158.262 263.868,158.000 263.754,158.000 263.144 C 158.000 262.667,157.713 262.400,157.200 262.400 C 156.760 262.400,156.400 262.149,156.400 261.843 C 156.400 261.240,155.562 260.800,154.414 260.800 C 154.016 260.800,153.594 260.420,153.471 259.950 C 153.290 259.259,153.053 259.150,152.191 259.366 C 151.340 259.580,151.092 259.473,150.920 258.816 C 150.752 258.171,150.380 258.000,149.153 258.000 C 147.867 258.000,147.600 257.863,147.600 257.200 C 147.600 256.552,147.333 256.400,146.200 256.400 C 145.078 256.400,144.800 256.245,144.800 255.619 C 144.800 254.987,144.575 254.867,143.617 254.988 C 142.722 255.101,142.375 254.950,142.190 254.369 C 142.056 253.946,141.598 253.600,141.173 253.600 C 140.667 253.600,140.400 253.324,140.400 252.800 C 140.400 252.267,140.133 252.000,139.600 252.000 C 138.806 252.000,138.800 251.733,138.800 219.000 C 138.800 186.267,138.806 186.000,139.600 186.000 C 140.133 186.000,140.400 185.733,140.400 185.200 C 140.400 184.552,140.667 184.400,141.800 184.400 C 142.933 184.400,143.200 184.248,143.200 183.600 C 143.200 182.933,143.467 182.800,144.800 182.800 C 145.933 182.800,146.400 182.630,146.400 182.218 C 146.400 181.870,146.962 181.531,147.800 181.374 C 148.602 181.223,149.200 180.874,149.200 180.555 C 149.200 180.250,149.560 180.000,150.000 180.000 C 150.533 180.000,150.800 179.733,150.800 179.200 C 150.800 178.552,151.067 178.400,152.200 178.400 C 153.178 178.400,153.600 178.219,153.600 177.800 C 153.600 177.378,154.026 177.200,155.037 177.200 C 156.138 177.200,156.524 177.013,156.684 176.400 C 156.841 175.799,157.230 175.600,158.247 175.600 C 159.333 175.600,159.600 175.442,159.600 174.800 C 159.600 174.152,159.867 174.000,161.000 174.000 C 161.925 174.000,162.400 173.812,162.400 173.447 C 162.400 173.142,162.760 172.799,163.200 172.684 C 163.640 172.569,164.000 172.188,164.000 171.837 C 164.000 171.376,164.386 171.200,165.400 171.200 C 166.533 171.200,166.800 171.048,166.800 170.400 C 166.800 169.733,167.067 169.600,168.400 169.600 C 169.556 169.600,170.000 169.433,170.000 169.000 C 170.000 168.596,170.404 168.400,171.237 168.400 C 172.138 168.400,172.532 168.183,172.684 167.600 C 172.834 167.026,173.230 166.800,174.084 166.800 C 174.938 166.800,175.334 166.574,175.484 166.000 C 175.600 165.557,176.030 165.200,176.447 165.200 C 176.861 165.200,177.200 164.930,177.200 164.600 C 177.200 164.181,177.622 164.000,178.600 164.000 C 179.733 164.000,180.000 163.848,180.000 163.200 C 180.000 162.548,180.267 162.400,181.437 162.400 C 182.538 162.400,182.924 162.213,183.084 161.600 C 183.241 160.999,183.630 160.800,184.647 160.800 C 185.583 160.800,186.000 160.615,186.000 160.200 C 186.000 159.870,186.345 159.600,186.767 159.600 C 187.959 159.600,188.800 159.169,188.800 158.557 C 188.800 158.251,189.160 158.000,189.600 158.000 C 190.133 158.000,190.400 157.733,190.400 157.200 C 190.400 156.552,190.667 156.400,191.800 156.400 C 192.778 156.400,193.200 156.219,193.200 155.800 C 193.200 155.378,193.626 155.200,194.637 155.200 C 195.738 155.200,196.124 155.013,196.284 154.400 C 196.441 153.799,196.830 153.600,197.847 153.600 C 198.933 153.600,199.200 153.442,199.200 152.800 C 199.200 152.133,199.467 152.000,200.800 152.000 C 202.133 152.000,202.400 152.133,202.400 152.800 M258.188 373.580 C 258.317 373.789,258.049 374.160,257.593 374.404 C 256.825 374.815,256.801 374.787,257.278 374.024 C 257.870 373.076,257.875 373.074,258.188 373.580 M194.830 418.510 C 194.781 418.988,194.232 418.896,194.060 418.380 C 193.972 418.116,194.116 417.972,194.380 418.060 C 194.644 418.148,194.846 418.351,194.830 418.510 " stroke="none" fill="#2c648c" fill-rule="evenodd"></path><path id="path1" d="M170.400 32.551 C 170.400 32.634,170.670 32.926,171.000 33.200 C 171.491 33.608,171.600 33.580,171.600 33.049 C 171.600 32.692,171.330 32.400,171.000 32.400 C 170.670 32.400,170.400 32.468,170.400 32.551 M193.394 351.200 C 193.394 379.250,193.442 390.725,193.500 376.700 C 193.558 362.675,193.558 339.725,193.500 325.700 C 193.442 311.675,193.394 323.150,193.394 351.200 M257.278 374.024 C 256.801 374.787,256.825 374.815,257.593 374.404 C 258.049 374.160,258.317 373.789,258.188 373.580 C 257.875 373.074,257.870 373.076,257.278 374.024 M194.060 418.380 C 194.148 418.644,194.351 418.847,194.510 418.830 C 194.988 418.781,194.896 418.232,194.380 418.060 C 194.116 417.972,193.972 418.116,194.060 418.380 " stroke="none" fill="#30648c" fill-rule="evenodd"></path><path id="path2" d="M170.400 32.551 C 170.400 32.634,170.670 32.926,171.000 33.200 C 171.491 33.608,171.600 33.580,171.600 33.049 C 171.600 32.692,171.330 32.400,171.000 32.400 C 170.670 32.400,170.400 32.468,170.400 32.551 M193.394 351.200 C 193.394 379.250,193.442 390.725,193.500 376.700 C 193.558 362.675,193.558 339.725,193.500 325.700 C 193.442 311.675,193.394 323.150,193.394 351.200 M257.278 374.024 C 256.801 374.787,256.825 374.815,257.593 374.404 C 258.049 374.160,258.317 373.789,258.188 373.580 C 257.875 373.074,257.870 373.076,257.278 374.024 M194.060 418.380 C 194.148 418.644,194.351 418.847,194.510 418.830 C 194.988 418.781,194.896 418.232,194.380 418.060 C 194.116 417.972,193.972 418.116,194.060 418.380 " stroke="none" fill="#30648c" fill-rule="evenodd"></path><path id="path3" d="M170.400 32.551 C 170.400 32.634,170.670 32.926,171.000 33.200 C 171.491 33.608,171.600 33.580,171.600 33.049 C 171.600 32.692,171.330 32.400,171.000 32.400 C 170.670 32.400,170.400 32.468,170.400 32.551 M193.394 351.200 C 193.394 379.250,193.442 390.725,193.500 376.700 C 193.558 362.675,193.558 339.725,193.500 325.700 C 193.442 311.675,193.394 323.150,193.394 351.200 M257.278 374.024 C 256.801 374.787,256.825 374.815,257.593 374.404 C 258.049 374.160,258.317 373.789,258.188 373.580 C 257.875 373.074,257.870 373.076,257.278 374.024 M194.060 418.380 C 194.148 418.644,194.351 418.847,194.510 418.830 C 194.988 418.781,194.896 418.232,194.380 418.060 C 194.116 417.972,193.972 418.116,194.060 418.380 " stroke="none" fill="#30648c" fill-rule="evenodd"></path><path id="path4" d="M170.400 32.551 C 170.400 32.634,170.670 32.926,171.000 33.200 C 171.491 33.608,171.600 33.580,171.600 33.049 C 171.600 32.692,171.330 32.400,171.000 32.400 C 170.670 32.400,170.400 32.468,170.400 32.551 M193.394 351.200 C 193.394 379.250,193.442 390.725,193.500 376.700 C 193.558 362.675,193.558 339.725,193.500 325.700 C 193.442 311.675,193.394 323.150,193.394 351.200 M257.278 374.024 C 256.801 374.787,256.825 374.815,257.593 374.404 C 258.049 374.160,258.317 373.789,258.188 373.580 C 257.875 373.074,257.870 373.076,257.278 374.024 M194.060 418.380 C 194.148 418.644,194.351 418.847,194.510 418.830 C 194.988 418.781,194.896 418.232,194.380 418.060 C 194.116 417.972,193.972 418.116,194.060 418.380 " stroke="none" fill="#30648c" fill-rule="evenodd"></path></g></svg>